<?xml version="1.0" encoding="UTF-8"?>
<svg id="Layer_1" data-name="Layer 1" xmlns="http://www.w3.org/2000/svg" viewBox="0 0 1000 1000">
  <defs>
    <style>
      .cls-1 {
        fill: #0b0b0b;
      }

      .cls-1, .cls-2 {
        stroke-width: 0px;
      }

      .cls-2 {
        fill: #84cc16;
      }
    </style>
  </defs>
  <rect class="cls-1" width="1000" height="1000"/>
  <g>
    <path class="cls-2" d="M850.83,809.86l1.3-1.61c18.71-23.23,15.04-57.22-8.19-75.93l-52.5-42.28c-18.78-15.13-25.01-40.88-15.57-63.07,22.73-53.41,31.59-111.99,25.19-171.29-9.86-91.49-54.77-173.67-126.44-231.38-71.68-57.72-161.53-84.04-253.01-74.2-134.08,14.45-248.15,104.18-294.57,243.11-.44,1.31-.83,2.64-1.16,3.97-35.99,142.02,11.54,279.16,116.6,363.76,61.82,49.78,137.16,76.23,215.42,76.23,12.47,0,25.02-.67,37.6-2.03,13.83-1.49,27.54-3.82,41.03-6.95,43.73-10.16,56.37-66.42,21.42-94.59l-2.1-1.69c-12.94-10.43-29.94-14.22-46.15-10.54-8.56,1.94-17.23,3.41-26,4.35-62.26,6.74-123.4-11.21-172.18-50.49-48.77-39.27-79.33-95.2-86.04-157.45-6.71-62.26,11.22-123.41,50.5-172.18,39.27-48.77,95.19-79.32,157.45-86.04,8.56-.93,17.1-1.38,25.59-1.38,53.25,0,104.52,18,146.59,51.87,48.77,39.28,79.33,95.2,86.04,157.46s-11.22,123.4-50.49,172.17c-.12.15-.23.29-.35.44-18.88,23.32-15.5,57.46,7.86,76.29l40.22,32.42s.02-.02.03-.02l86,69.25c23.23,18.7,57.22,15.04,75.93-8.19Z"/>
    <circle class="cls-2" cx="329.09" cy="492.62" r="46.64"/>
    <circle class="cls-2" cx="458.55" cy="492.62" r="46.64"/>
    <circle class="cls-2" cx="588" cy="492.62" r="46.64"/>
  </g>
</svg>