<?xml version="1.0" encoding="UTF-8"?>
<svg id="Layer_1" data-name="Layer 1" xmlns="http://www.w3.org/2000/svg" version="1.1" viewBox="0 0 1000 1000">
  <defs>
    <style>
      .cls-1 {
        fill: #84cc16;
        stroke-width: 0px;
      }
    </style>
  </defs>
  <path class="cls-1" d="M850.8,809.9l1.3-1.6c18.7-23.2,15-57.2-8.2-75.9l-52.5-42.3c-18.8-15.1-25-40.9-15.6-63.1,22.7-53.4,31.6-112,25.2-171.3-9.9-91.5-54.8-173.7-126.4-231.4-71.7-57.7-161.5-84-253-74.2-134.1,14.5-248.2,104.2-294.6,243.1-.4,1.3-.8,2.6-1.2,4-36,142,11.5,279.2,116.6,363.8,61.8,49.8,137.2,76.2,215.4,76.2s25-.7,37.6-2c13.8-1.5,27.5-3.8,41-7,43.7-10.2,56.4-66.4,21.4-94.6l-2.1-1.7c-12.9-10.4-29.9-14.2-46.2-10.5-8.6,1.9-17.2,3.4-26,4.4-62.3,6.7-123.4-11.2-172.2-50.5-48.8-39.3-79.3-95.2-86-157.5-6.7-62.3,11.2-123.4,50.5-172.2,39.3-48.8,95.2-79.3,157.5-86,8.6-.9,17.1-1.4,25.6-1.4,53.2,0,104.5,18,146.6,51.9,48.8,39.3,79.3,95.2,86,157.5s-11.2,123.4-50.5,172.2c-.1.1-.2.3-.4.4-18.9,23.3-15.5,57.5,7.9,76.3l40.2,32.4s0,0,0,0l86,69.3c23.2,18.7,57.2,15,75.9-8.2Z"/>
  <circle class="cls-1" cx="329.1" cy="492.6" r="46.6"/>
  <circle class="cls-1" cx="458.5" cy="492.6" r="46.6"/>
  <circle class="cls-1" cx="588" cy="492.6" r="46.6"/>
</svg>