<?xml version="1.0" encoding="UTF-8"?>
<svg id="Layer_1" data-name="Layer 1" xmlns="http://www.w3.org/2000/svg" version="1.1" viewBox="0 0 1790.9 1000">
  <g>
    <path d="M830.6,809.9l1.3-1.6c18.7-23.2,15-57.2-8.2-75.9l-52.5-42.3c-18.8-15.1-25-40.9-15.6-63.1,22.7-53.4,31.6-112,25.2-171.3-9.9-91.5-54.8-173.7-126.4-231.4-71.7-57.7-161.5-84-253-74.2-134.1,14.5-248.2,104.2-294.6,243.1-.4,1.3-.8,2.6-1.2,4-36,142,11.5,279.2,116.6,363.8,61.8,49.8,137.2,76.2,215.4,76.2s25-.7,37.6-2c13.8-1.5,27.5-3.8,41-7,43.7-10.2,56.4-66.4,21.4-94.6l-2.1-1.7c-12.9-10.4-29.9-14.2-46.2-10.5-8.6,1.9-17.2,3.4-26,4.4-62.3,6.7-123.4-11.2-172.2-50.5-48.8-39.3-79.3-95.2-86-157.5-6.7-62.3,11.2-123.4,50.5-172.2,39.3-48.8,95.2-79.3,157.5-86,8.6-.9,17.1-1.4,25.6-1.4,53.2,0,104.5,18,146.6,51.9,48.8,39.3,79.3,95.2,86,157.5s-11.2,123.4-50.5,172.2c-.1.1-.2.3-.4.4-18.9,23.3-15.5,57.5,7.9,76.3l40.2,32.4s0,0,0,0l86,69.3c23.2,18.7,57.2,15,75.9-8.2Z" style="fill: #84cc16; stroke-width: 0px;"/>
    <circle cx="308.9" cy="492.6" r="46.6" style="fill: #84cc16; stroke-width: 0px;"/>
    <circle cx="438.3" cy="492.6" r="46.6" style="fill: #84cc16; stroke-width: 0px;"/>
    <circle cx="567.8" cy="492.6" r="46.6" style="fill: #84cc16; stroke-width: 0px;"/>
  </g>
  <g>
    <path d="M1194.4,841.7c-30.3,0-52.2-22.7-52.2-58.3v-173.4c0-51.5-22.7-89.3-75-89.3s-46.9,6.1-67.4,15.9v246.8c0,35.6-21.2,58.3-52.2,58.3s-51.5-22.7-51.5-58.3v-295.3c0-35.6,21.2-58.3,51.5-58.3s49.2,19.7,52.2,46.9c31.8-31.8,69.7-50.7,117.4-50.7s128.7,50.7,128.7,140.1v217.3c0,35.6-21.2,58.3-51.5,58.3Z" style="fill: #84cc16; stroke-width: 0px;"/>
    <path d="M1598.7,841.7c-30.3,0-45.4-21.2-45.4-48.5v-11.4c-28.8,36.3-62.8,63.6-110.5,63.6s-121.1-50-121.1-121.1,68.1-145.4,225.6-124.2v-22c0-20.4-2.3-40.9-13.6-56-11.4-4.5-28.8-7.6-47.7-7.6-38.6,0-62.8,14.4-85.6,14.4s-43.9-18.9-43.9-42.4,12.9-35.6,33.3-44.7c17.4-7.6,44.7-15.9,94.6-15.9,105.2,0,162.8,58.3,162.8,151.4v204.4c0,37.9-17.4,59.8-48.5,59.8ZM1472.3,766c32.6,0,76.5-28,76.5-71.2v-27.3c-28-9.1-97.7-14.4-129.5,5.3-5.3,9.1-7.6,25-7.6,37.1,0,32.6,18.2,56,60.6,56Z" style="fill: #84cc16; stroke-width: 0px;"/>
  </g>
</svg>