<?xml version="1.0" encoding="utf-8"?>
<svg version="1.1" id="Layer_1" xmlns="http://www.w3.org/2000/svg" xmlns:xlink="http://www.w3.org/1999/xlink" x="0px"
	y="0px" viewBox="0 0 1000 1000" color="#84CC16" xml:space="preserve">
	<g>
		<path fill="currentColor" d="M816.96,851.92L886,766.19L757.94,663.06c35.75-62.5,51-134.4,43.12-207.38
		c-9.86-91.49-54.77-173.67-126.44-231.38c-71.68-57.72-161.53-84.04-253.01-74.2c-91.49,9.86-173.66,54.77-231.38,126.44
		c-57.72,71.67-84.07,161.53-74.2,253.02c9.87,91.49,54.77,173.66,126.44,231.38c61.82,49.78,137.16,76.23,215.42,76.23
		c12.47,0,25.02-0.67,37.6-2.03c47.41-5.11,93.29-20.05,134.39-43.56l-95.72-77.15c-16.31,5.54-33.22,9.42-50.48,11.28
		c-62.26,6.74-123.4-11.21-172.18-50.49c-48.77-39.27-79.33-95.2-86.04-157.45c-6.71-62.26,11.22-123.41,50.5-172.18
		c39.27-48.77,95.19-79.32,157.45-86.04c8.56-0.93,17.1-1.38,25.59-1.38c53.25,0,104.52,18,146.59,51.87
		c48.77,39.28,79.33,95.2,86.04,157.46s-11.22,123.4-50.49,172.17c-11.7,14.52-25.06,27.44-39.67,38.7l87.4,70.45
		c0.01-0.01,0.02-0.02,0.03-0.02L816.96,851.92z" />
		<circle fill="currentColor" cx="329.09" cy="492.62" r="46.64" />
		<circle fill="currentColor" cx="458.55" cy="492.62" r="46.64" />
		<circle fill="currentColor" cx="588" cy="492.62" r="46.64" />
	</g>
</svg>